# AST/ASF file generated using VICON BodyLanguage
# -----------------------------------------------
:version 1.10
:name VICON
:units
  mass 1.0
  length 0.45
  angle deg
:documentation
   .ast/.asf automatically generated from VICON data using
   VICON BodyBuilder and BodyLanguage model FoxedUp or BRILLIANT.MOD
:root
   order TX TY TZ RX RY RZ
   axis XYZ
   position 0 0 0  
   orientation 0 0 0 
:bonedata
  begin
     id 1 
     name lhipjoint
     direction 0.623415 -0.642378 0.445763 
     length 2.49859 
     axis 0 0 0  XYZ
  end
  begin
     id 2 
     name lfemur
     direction 0.34202 -0.939693 0  
     length 6.69689  
     axis 0 0 20  XYZ
    dof rx ry rz
    limits (-160.0 20.0)
           (-70.0 70.0)
           (-60.0 70.0)
  end
  begin
     id 3 
     name ltibia
     direction 0.34202 -0.939693 0   
     length 7.37574   
     axis 0 0 20   XYZ
    dof rx
    limits (-10.0 170.0)
  end
  begin
     id 4 
     name lfoot
     direction 0.084323 -0.231675 0.969132   
     length 2.09111   
     axis -90 7.62852e-016 20   XYZ
    dof rx rz
    limits (-45.0 90.0)
           (-70.0 20.0)
  end
  begin
     id 5 
     name ltoes
     direction 1.5357e-011 -4.21957e-011 1   
     length 1.04989   
     axis -90 7.62852e-016 20   XYZ
    dof rx
    limits (-90.0 20.0)
  end
  begin
     id 6 
     name rhipjoint
     direction -0.605402 -0.653903 0.45376   
     length 2.45455  
     axis 0 0 0  XYZ 
  end
  begin
     id 7 
     name rfemur
     direction -0.34202 -0.939693 0   
     length 6.64523   
     axis 0 0 -20   XYZ
    dof rx ry rz
    limits (-160.0 20.0)
           (-70.0 70.0)
           (-70.0 60.0)
  end
  begin
     id 8 
     name rtibia
     direction -0.34202 -0.939693 0   
     length 7.3339   
     axis 0 0 -20   XYZ
    dof rx
    limits (-10.0 170.0)
 end
 begin
     id 9 
     name rfoot
     direction -0.120854 -0.332043 0.93549   
     length 2.23135  
     axis -90 -7.62852e-016 -20   XYZ
    dof rx rz
    limits (-45.0 90.0)
           (-20.0 70.0)
  end
  begin
     id 10 
     name rtoes
     direction -1.53563e-011 -4.21914e-011 1   
     length 1.10614   
     axis -90 -7.62852e-016 -20   XYZ
    dof rx
    limits (-90.0 20.0)
  end
  begin
     id 11 
     name lowerback
     direction 0.0319682 0.998615 -0.0417941   
     length 2.02718   
     axis 0 0 0   XYZ
    dof rx ry rz
    limits (-20.0 45.0)
           (-30.0 30.0)
           (-30.0 30.0)
  end
  begin
     id 12 
     name upperback
     direction 7.63181e-005 0.995808 0.0914691   
     length 1.97539   
     axis 0 0 0   XYZ
    dof rx ry rz
    limits (-20.0 45.0)
           (-30.0 30.0)
           (-30.0 30.0)
  end
  begin
     id 13 
     name thorax
     direction -0.016423 0.993627 0.111514   
     length 2.00349   
     axis 0 0 0   XYZ
    dof rx ry rz
    limits (-20.0 45.0)
           (-30.0 30.0)
           (-30.0 30.0)
  end
  begin
     id 14 
     name lowerneck
     direction -0.174763 0.981668 -0.0760716   
     length 1.71436   
     axis 0 0 0   XYZ
    dof rx ry rz
    limits (-20.0 45.0)
           (-30.0 30.0)
           (-30.0 30.0)
  end
  begin
     id 15 
     name upperneck
     direction 0.345458 0.934587 -0.0848868   
     length 1.72805   
     axis 0 0 0   XYZ
    dof rx ry rz
    limits (-20.0 45.0)
           (-30.0 30.0)
           (-30.0 30.0)
  end
  begin
     id 16
     name head
     direction 0.13001 0.989848 -0.0574291  
     length 1.767  
     axis 0 0 0   XYZ
    dof rx ry rz
    limits (-20.0 45.0)
           (-30.0 30.0)
           (-30.0 30.0)
  end
  begin
     id 17 
     name lclavicle
     direction 0.952951 0.290122 0.0878234  
     length 3.54654  
     axis 0 0 0   XYZ
    dof ry rz
    limits (-20.0 10.0)
           (0.0 20.0)
  end
  begin
     id 18 
     name lhumerus
     direction 1 -4.48957e-011 -4.56525e-028   
     length 5.19807   
     axis 180 -30 -90   XYZ
    dof rx ry rz
    limits (-60.0 90.0)
           (-90.0 90.0)
           (-90.0 90.0)
  end
  begin
     id 19
     name lradius
     direction 1 -4.48979e-011 -2.0317e-027   
     length 3.0937   
     axis 180 -30 -90   XYZ
    dof rx
    limits (-10.0 170.0)
  end
  begin
     id 20
     name lwrist
     direction 1 -4.48953e-011 -3.05809e-027   
     length 1.54685   
     axis 8.48514e-016 90 90   XYZ
    dof ry
    limits (-180.0 0.0)
 end
  begin
     id 21 
     name lhand
     direction 1 -4.48952e-011 -6.11639e-027   
     length 0.672632   
     axis 3.9013e-015 90 90   XYZ
    dof rx rz
    limits (-90.0 90.0)
           (-45.0 45.0)
  end
  begin
     id 22 
     name lfingers
     direction 1 -4.48925e-011 -1.22426e-026   
     length 0.542293   
     axis 7.80276e-015 90 90   XYZ
    dof rx
    limits (0.0 90.0)
  end
  begin
     id 23
     name lthumb
     direction 0.707107 -6.3486e-011 0.707107   
     length 0.778628   
     axis -90 45 5.37419e-014   XYZ
    dof rx rz
    limits (-45.0 45.0)
           (-45.0 45.0)
  end
  begin
     id 24 
     name rclavicle
     direction -0.960732 0.273675 -0.0457849   
     length 3.52079  
     axis 0 0 0   XYZ 
    dof ry rz
    limits (-10.0 20.0)
           (-20.0 0.0)
  end
  begin
     id 25 
     name rhumerus
     direction -1 -4.48976e-011 -1.63613e-027  
     length 5.45222   
     axis 180 30 90   XYZ
    dof rx ry rz
    limits (-90.0 60.0)
           (-90.0 90.0)
           (-90.0 90.0)
  end
  begin
     id 26 
     name rradius
     direction -1 -4.48957e-011 -7.00033e-028   
     length 3.01284   
     axis 180 30 90   XYZ
    dof rx
    limits (-10.0 170.0)
  end
  begin
     id 27 
     name rwrist
     direction -1 -4.48983e-011 -3.05543e-027   
     length 1.50642   
     axis 8.48514e-016 -90 -90   XYZ
    dof ry
    limits (-180.0 0.0)
  end
  begin
     id 28
     name rhand
     direction -1 -4.48984e-011 -6.11072e-027   
     length 0.622296   
     axis 3.9013e-015 -90 -90   XYZ
    dof rx rz
    limits (-90.0 90.0)
           (-45.0 45.0)
  end
  begin
     id 29
     name rfingers
     direction -1 -4.48865e-011 -1.22637e-026   
     length 0.501711   
     axis 7.80276e-015 -90 -90   XYZ
    dof rx
    limits (0.0 90.0)
  end
  begin
     id 30
     name rthumb
     direction -0.707107 -6.34932e-011 0.707107   
     length 0.72036   
     axis -90 -45 -5.37419e-014   XYZ
    dof rx rz
    limits (-45.0 45.0)
           (-45.0 45.0)
  end
:hierarchy
  begin
    root lhipjoint rhipjoint lowerback
    lhipjoint lfemur
    lfemur ltibia
    ltibia lfoot
    lfoot ltoes
    rhipjoint rfemur
    rfemur rtibia
    rtibia rfoot
    rfoot rtoes
    lowerback upperback
    upperback thorax
    thorax lowerneck lclavicle rclavicle
    lowerneck upperneck
    upperneck head
    lclavicle lhumerus
    lhumerus lradius
    lradius lwrist
    lwrist lhand lthumb
    lhand lfingers
    rclavicle rhumerus
    rhumerus rradius
    rradius rwrist
    rwrist rhand rthumb
    rhand rfingers
  end

#!OML:ASF H:\Not Pregnant\Project 1\Capture day 1\Session 1\non-pregnant.ASF
:FULLY-SPECIFIED
:DEGREES
175
root -5.54562 16.3407 34.8607 173.419 -81.3925 -160.348
lowerback -15.6372 2.15018 3.79873
upperback -3.12621 2.0166 0.421666
thorax 5.55083 0.969784 -1.30325
lowerneck 23.5059 -0.887742 -36.5603
upperneck 23.199 -15.5893 23.6042
head 8.34182 -11.3342 14.8639
rclavicle 1.92705e-014 6.31141e-015
rhumerus -33.5043 20.5945 -95.7315
rradius 28.0181
rwrist 19.0294
rhand -8.09761 3.24189
rfingers 7.12502
rthumb 17.8149 -25.9621
lclavicle 1.92705e-014 6.31141e-015
lhumerus -38.343 -25.0008 95.8492
lradius 35.2536
lwrist 44.637
lhand -2.0159 -12.6077
lfingers 7.12502
lthumb 23.6581 15.9566
rfemur -11.6692 -7.04453 21.5532
rtibia 8.79589
rfoot -13.138 13.2941
rtoes -12.6272
lfemur -15.2856 4.18914 -16.5954
ltibia 12.8817
lfoot -12.6179 -7.98991
ltoes -19.5639
176
root -5.54698 16.3415 34.8606 173.513 -81.4038 -160.418
lowerback -15.5327 2.11923 3.66258
upperback -3.16035 1.99981 0.472605
thorax 5.45044 0.957259 -1.17955
lowerneck 23.4689 -0.994308 -36.4416
upperneck 22.9578 -15.6423 23.6654
head 8.26951 -11.3206 14.8507
rclavicle 3.36447e-014 2.44505e-014
rhumerus -33.4576 20.1591 -95.562
rradius 27.9809
rwrist 19.2616
rhand -8.14308 3.29247
rfingers 7.12502
rthumb 17.7712 -25.9155
lclavicle 3.36447e-014 2.44505e-014
lhumerus -37.8912 -23.9781 95.3259
lradius 35.0868
lwrist 44.8503
lhand -0.498739 -12.4734
lfingers 7.12502
lthumb 25.1126 15.8951
rfemur -11.6606 -7.05384 21.5451
rtibia 8.7385
rfoot -13.1231 13.2837
rtoes -12.7063
lfemur -15.2931 4.20856 -16.6174
ltibia 12.8454
lfoot -12.5949 -8.0294
ltoes -19.4592
177
root -5.54831 16.3421 34.8604 173.546 -81.4131 -160.43
lowerback -15.4243 2.09392 3.58372
upperback -3.18967 1.98181 0.514892
thorax 5.35534 0.945407 -1.09758
lowerneck 23.3886 -1.08699 -36.408
upperneck 22.7233 -15.6903 23.7843
head 8.21748 -11.3106 14.8802
rclavicle -2.22452e-014 -1.37658e-014
rhumerus -33.3906 19.6388 -95.3609
rradius 27.9054
rwrist 19.5679
rhand -8.22025 3.34979
rfingers 7.12502
rthumb 17.6969 -25.8649
lclavicle -2.22452e-014 -1.37658e-014
lhumerus -37.4564 -22.9545 94.8154
lradius 34.912
lwrist 45.0584
lhand 0.891341 -12.3843
lfingers 7.12502
lthumb 26.4438 15.791
rfemur -11.6453 -7.06157 21.5482
rtibia 8.67056
rfoot -13.1085 13.2703
rtoes -12.8106
lfemur -15.3075 4.22877 -16.6289
ltibia 12.8248
lfoot -12.581 -8.06393
ltoes -19.3763
178
root -5.5496 16.3426 34.8601 173.532 -81.4202 -160.393
lowerback -15.314 2.0735 3.5478
upperback -3.21734 1.96387 0.549024
thorax 5.26279 0.934406 -1.04843
lowerneck 23.2785 -1.17355 -36.4368
upperneck 22.4912 -15.741 23.9462
head 8.18176 -11.3062 14.9406
rclavicle -1.91497e-014 -6.5102e-015
rhumerus -33.3259 19.0646 -95.1429
rradius 27.8072
rwrist 19.9142
rhand -8.3277 3.39664
rfingers 7.12502
rthumb 17.5935 -25.8273
lclavicle -1.91497e-014 -6.5102e-015
lhumerus -37.0396 -21.9081 94.3009
lradius 34.7399
lwrist 45.3685
lhand 2.21647 -12.2852
lfingers 7.12502
lthumb 27.7116 15.6928
rfemur -11.6203 -7.06761 21.5606
rtibia 8.58602
rfoot -13.0852 13.2613
rtoes -12.9013
lfemur -15.3299 4.24833 -16.631
ltibia 12.8218
lfoot -12.5771 -8.09112
ltoes -19.3116
179
root -5.55098 16.343 34.8598 173.439 -81.4267 -160.28
lowerback -15.2018 2.05841 3.55093
upperback -3.24382 1.94706 0.579475
thorax 5.17202 0.924574 -1.02496
lowerneck 23.1515 -1.25937 -36.5205
upperneck 22.2563 -15.8031 24.1436
head 8.16086 -11.3115 15.0266
rclavicle 5.03601e-015 2.32081e-014
rhumerus -33.2594 18.4167 -94.8948
rradius 27.6748
rwrist 20.3213
rhand -8.46068 3.45355
rfingers 7.12502
rthumb 17.4655 -25.7818
lclavicle 5.03601e-015 2.32081e-014
lhumerus -36.6716 -20.8873 93.8315
lradius 34.5552
lwrist 45.569
lhand 3.2774 -12.2765
lfingers 7.12502
lthumb 28.7256 15.5341
rfemur -11.5821 -7.07404 21.5855
rtibia 8.48432
rfoot -13.0552 13.2561
rtoes -12.9834
lfemur -15.3574 4.26289 -16.6196
ltibia 12.8355
lfoot -12.5846 -8.10906
ltoes -19.2915
